#!OML:ASF H:\MichaelJackson\Top Level 1\Subject 1\Session 1\male.ASF
:FULLY-SPECIFIED
:DEGREES
540
root 4.03824 16.0472 18.8172 -350.027 0.791893 5.31568
lowerback 9.56797 1.39956 -4.18468
upperback 2.267 1.34548 -2.87957
thorax -3.03203 0.690743 -0.796804
lowerneck -3.97416 -3.2534 1.25462
upperneck -4.31457 -4.3237 2.60773
head -0.630683 -2.19525 0.560898
rclavicle 1.24737e-014 -9.93923e-016
rhumerus -40.6257 -9.8375 -89.7213
rradius 47.3788
rwrist -0.729912
rhand -34.9223 -34.6479
rfingers 7.12502
rthumb -8.06974 -424.474
lclavicle 1.24737e-014 -9.93923e-016
lhumerus -36.2285 -18.9254 90.3883
lradius 58.486
lwrist 24.0804
lhand -20.0828 10.4366
lfingers 7.12502
lthumb 6.2599 40.3241
rfemur -40.2547 -13.0677 9.81868
rtibia 85.3891
rfoot 0.700704 -6.37783
rtoes 13.5151
lfemur -42.4851 8.93091 -28.0245
ltibia 50.4202
lfoot -19.2655 -1.97878
ltoes 4.29931
541
root 4.05357 16.0352 18.9548 -349.999 0.993134 5.51521
lowerback 9.71982 1.28543 -4.33804
upperback 2.27923 1.16821 -2.92632
thorax -3.10209 0.604635 -0.741397
lowerneck -3.98068 -3.22997 1.22589
upperneck -4.54084 -4.28484 2.66656
head -0.697297 -2.17874 0.586772
rclavicle -1.63997e-015 -2.22639e-014
rhumerus -40.7021 -8.933 -90.211
rradius 48.3496
rwrist -0.570733
rhand -34.7224 -33.4653
rfingers 7.12502
rthumb -7.87681 -423.299
lclavicle -1.63997e-015 -2.22639e-014
lhumerus -35.685 -20.233 90.4587
lradius 59.4051
lwrist 23.9541
lhand -19.2902 10.4105
lfingers 7.12502
lthumb 7.02506 40.2739
rfemur -42.3945 -13.4535 10.6397
rtibia 85.5251
rfoot -1.228 -6.32567
rtoes 12.4251
lfemur -42.1482 9.01866 -28.2877
ltibia 50.8394
lfoot -20.0313 -1.97644
ltoes 4.06361
542
root 4.06779 16.0218 19.0942 -349.995 1.20042 5.73963
lowerback 9.87811 1.16252 -4.50732
upperback 2.29374 0.976558 -2.98145
thorax -3.17244 0.511634 -0.683424
lowerneck -3.98867 -3.20224 1.20454
upperneck -4.76081 -4.24063 2.71998
head -0.762286 -2.15957 0.609783
rclavicle 4.37326e-015 1.59028e-015
rhumerus -40.8544 -8.0386 -90.6681
rradius 49.3592
rwrist -0.123956
rhand -34.4447 -31.614
rfingers 7.12502
rthumb -7.60879 -421.457
lclavicle 4.37326e-015 1.59028e-015
lhumerus -35.2213 -21.6785 90.5114
lradius 60.5176
lwrist 24.1389
lhand -18.5155 10.4695
lfingers 7.12502
lthumb 7.77279 40.3067
rfemur -44.3675 -13.7384 11.3988
rtibia 85.3476
rfoot -2.87741 -5.87853
rtoes 10.8195
lfemur -41.77 9.10421 -28.5601
ltibia 51.2562
lfoot -20.8009 -1.97578
ltoes 3.84082
543
root 4.08088 16.0072 19.2358 -350.016 1.41058 5.98927
lowerback 10.0327 1.03351 -4.69657
upperback 2.31055 0.774328 -3.04366
thorax -3.23741 0.4136 -0.619475
lowerneck -3.98382 -3.17016 1.19722
upperneck -4.97456 -4.19119 2.75926
head -0.828309 -2.13797 0.626449
rclavicle -2.28602e-015 -3.24019e-014
rhumerus -41.0787 -7.18878 -91.0813
rradius 50.3916
rwrist 0.595961
rhand -34.1367 -29.2163
rfingers 7.12502
rthumb -7.31147 -419.07
lclavicle -2.28602e-015 -3.24019e-014
lhumerus -34.8245 -23.2008 90.5322
lradius 61.7807
lwrist 24.5326
lhand -17.8185 10.5005
lfingers 7.12502
lthumb 8.44546 40.3117
rfemur -46.1438 -13.9214 12.0686
rtibia 84.8734
rfoot -4.27116 -5.0307
rtoes 8.37677
lfemur -41.3486 9.20096 -28.8445
ltibia 51.6728
lfoot -21.5756 -1.98034
ltoes 3.60364
